HIERARCHY
ROOT reference
{
  OFFSET 0 0 0
  CHANNELS 6 Xposition Yposition Zposition Zrotation Xrotation Yrotation
  JOINT Hips
  {
    OFFSET 368.823 89.7904 194.012
    CHANNELS 3 Zrotation Xrotation Yrotation
    JOINT RightUpLeg
    {
      OFFSET -9.24587 -1.53924 -0.0496539
      CHANNELS 3 Zrotation Xrotation Yrotation
      JOINT RightLeg
      {
        OFFSET 0.0288962 -41.8853 0.065208
        CHANNELS 3 Zrotation Xrotation Yrotation
        JOINT RightFoot
        {
          OFFSET -0.153961 -42.496 -0.469978
          CHANNELS 3 Zrotation Xrotation Yrotation
          End Site
          {
            OFFSET 0 -7.69 17.5
          }
        }
      }
    }
    JOINT LeftUpLeg
    {
      OFFSET 9.30368 -1.65799 0.0114032
      CHANNELS 3 Zrotation Xrotation Yrotation
      JOINT LeftLeg
      {
        OFFSET 0.0812002 -41.8405 -0.136291
        CHANNELS 3 Zrotation Xrotation Yrotation
        JOINT LeftFoot
        {
          OFFSET 0.408244 -41.1613 0.400562
          CHANNELS 3 Zrotation Xrotation Yrotation
          End Site
          {
            OFFSET 0 -7.69 17.5
          }
        }
      }
    }
    JOINT Spine
    {
      OFFSET 0.0091145 14.2923 0.0603898
      CHANNELS 3 Zrotation Xrotation Yrotation
      JOINT Spine1
      {
        OFFSET 0.0313032 9.72692 0.0269052
        CHANNELS 3 Zrotation Xrotation Yrotation
        JOINT Spine2
        {
          OFFSET 0.0416827 10.1254 -0.000588186
          CHANNELS 3 Zrotation Xrotation Yrotation
          JOINT Spine3
          {
            OFFSET 0.0353017 9.71596 0.00525809
            CHANNELS 3 Zrotation Xrotation Yrotation
            JOINT Neck
            {
              OFFSET 0.0870676 10.3793 0.0454457
              CHANNELS 3 Zrotation Xrotation Yrotation
              JOINT Head
              {
                OFFSET 0.0878806 9.48152 0.0233162
                CHANNELS 3 Zrotation Xrotation Yrotation
                End Site
                {
                  OFFSET 0 15.95 0
                }
              }
            }
            JOINT RightShoulder
            {
              OFFSET -3.16008 6.92912 0.0289115
              CHANNELS 3 Zrotation Xrotation Yrotation
              JOINT RightArm
              {
                OFFSET -12.7589 0.0216905 0.0632467
                CHANNELS 3 Zrotation Xrotation Yrotation
                JOINT RightForeArm
                {
                  OFFSET -26.506 -0.0577999 0.0567862
                  CHANNELS 3 Zrotation Xrotation Yrotation
                  JOINT RightHand
                  {
                    OFFSET -25.9836 -0.0526551 -0.00138994
                    CHANNELS 3 Zrotation Xrotation Yrotation
                    JOINT RightHandThumb1
                    {
                      OFFSET -2.48905 0.190105 3.12053
                      CHANNELS 3 Zrotation Xrotation Yrotation
                      JOINT RightHandThumb2
                      {
                        OFFSET -3.68274 0 0
                        CHANNELS 3 Zrotation Xrotation Yrotation
                        JOINT RightHandThumb3
                        {
                          OFFSET -2.55832 0 0
                          CHANNELS 3 Zrotation Xrotation Yrotation
                          End Site
                          {
                            OFFSET -2.194 0 0
                          }
                        }
                      }
                    }
                    JOINT RightInHandIndex
                    {
                      OFFSET -3.22368 0.508421 1.97842
                      CHANNELS 3 Zrotation Xrotation Yrotation
                      JOINT RightHandIndex1
                      {
                        OFFSET -5.21684 -0.091368 0.999158
                        CHANNELS 3 Zrotation Xrotation Yrotation
                        JOINT RightHandIndex2
                        {
                          OFFSET -3.61937 0 0
                          CHANNELS 3 Zrotation Xrotation Yrotation
                          JOINT RightHandIndex3
                          {
                            OFFSET -2.0521 0 0
                            CHANNELS 3 Zrotation Xrotation Yrotation
                            End Site
                            {
                              OFFSET -1.805 0 0
                            }
                          }
                        }
                      }
                    }
                    JOINT RightInHandMiddle
                    {
                      OFFSET -3.38211 0.517263 0.756737
                      CHANNELS 3 Zrotation Xrotation Yrotation
                      JOINT RightHandMiddle1
                      {
                        OFFSET -5.17411 -0.084 0.313895
                        CHANNELS 3 Zrotation Xrotation Yrotation
                        JOINT RightHandMiddle2
                        {
                          OFFSET -3.94947 0 0
                          CHANNELS 3 Zrotation Xrotation Yrotation
                          JOINT RightHandMiddle3
                          {
                            OFFSET -2.47579 0 0
                            CHANNELS 3 Zrotation Xrotation Yrotation
                            End Site
                            {
                              OFFSET -1.975 0 0
                            }
                          }
                        }
                      }
                    }
                    JOINT RightInHandRing
                    {
                      OFFSET -3.36516 0.537895 -0.128947
                      CHANNELS 3 Zrotation Xrotation Yrotation
                      JOINT RightHandRing1
                      {
                        OFFSET -4.63474 -0.022105 -0.478947
                        CHANNELS 3 Zrotation Xrotation Yrotation
                        JOINT RightHandRing2
                        {
                          OFFSET -3.44238 0 0
                          CHANNELS 3 Zrotation Xrotation Yrotation
                          JOINT RightHandRing3
                          {
                            OFFSET -2.3881 0 0
                            CHANNELS 3 Zrotation Xrotation Yrotation
                            End Site
                            {
                              OFFSET -1.857 0 0
                            }
                          }
                        }
                      }
                    }
                    JOINT RightInHandPinky
                    {
                      OFFSET -3.16105 0.469368 -1.20179
                      CHANNELS 3 Zrotation Xrotation Yrotation
                      JOINT RightHandPinky1
                      {
                        OFFSET -4.14105 -0.022105 -1.09053
                        CHANNELS 3 Zrotation Xrotation Yrotation
                        JOINT RightHandPinky2
                        {
                          OFFSET -2.75653 0 0
                          CHANNELS 3 Zrotation Xrotation Yrotation
                          JOINT RightHandPinky3
                          {
                            OFFSET -1.74189 0 0
                            CHANNELS 3 Zrotation Xrotation Yrotation
                            End Site
                            {
                              OFFSET -1.645 0 0
                            }
                          }
                        }
                      }
                    }
                  }
                }
              }
            }
            JOINT LeftShoulder
            {
              OFFSET 3.24363 6.91883 -0.0263005
              CHANNELS 3 Zrotation Xrotation Yrotation
              JOINT LeftArm
              {
                OFFSET 12.8387 -0.0254922 -0.065819
                CHANNELS 3 Zrotation Xrotation Yrotation
                JOINT LeftForeArm
                {
                  OFFSET 26.503 -0.0679028 -0.0690065
                  CHANNELS 3 Zrotation Xrotation Yrotation
                  JOINT LeftHand
                  {
                    OFFSET 25.9897 -0.0384179 -0.0536179
                    CHANNELS 3 Zrotation Xrotation Yrotation
                    JOINT LeftHandThumb1
                    {
                      OFFSET 2.48905 0.190105 3.12053
                      CHANNELS 3 Zrotation Xrotation Yrotation
                      JOINT LeftHandThumb2
                      {
                        OFFSET 3.68274 0 0
                        CHANNELS 3 Zrotation Xrotation Yrotation
                        JOINT LeftHandThumb3
                        {
                          OFFSET 2.55832 0 0
                          CHANNELS 3 Zrotation Xrotation Yrotation
                          End Site
                          {
                            OFFSET 2.194 0 0
                          }
                        }
                      }
                    }
                    JOINT LeftInHandIndex
                    {
                      OFFSET 3.22368 0.508421 1.97842
                      CHANNELS 3 Zrotation Xrotation Yrotation
                      JOINT LeftHandIndex1
                      {
                        OFFSET 5.21684 -0.091368 0.999158
                        CHANNELS 3 Zrotation Xrotation Yrotation
                        JOINT LeftHandIndex2
                        {
                          OFFSET 3.61937 0 0
                          CHANNELS 3 Zrotation Xrotation Yrotation
                          JOINT LeftHandIndex3
                          {
                            OFFSET 2.0521 0 0
                            CHANNELS 3 Zrotation Xrotation Yrotation
                            End Site
                            {
                              OFFSET 1.805 0 0
                            }
                          }
                        }
                      }
                    }
                    JOINT LeftInHandMiddle
                    {
                      OFFSET 3.38211 0.517263 0.756737
                      CHANNELS 3 Zrotation Xrotation Yrotation
                      JOINT LeftHandMiddle1
                      {
                        OFFSET 5.17411 -0.084 0.313895
                        CHANNELS 3 Zrotation Xrotation Yrotation
                        JOINT LeftHandMiddle2
                        {
                          OFFSET 3.94947 0 0
                          CHANNELS 3 Zrotation Xrotation Yrotation
                          JOINT LeftHandMiddle3
                          {
                            OFFSET 2.47579 0 0
                            CHANNELS 3 Zrotation Xrotation Yrotation
                            End Site
                            {
                              OFFSET 1.975 0 0
                            }
                          }
                        }
                      }
                    }
                    JOINT LeftInHandRing
                    {
                      OFFSET 3.36516 0.537895 -0.128947
                      CHANNELS 3 Zrotation Xrotation Yrotation
                      JOINT LeftHandRing1
                      {
                        OFFSET 4.63474 -0.022105 -0.478947
                        CHANNELS 3 Zrotation Xrotation Yrotation
                        JOINT LeftHandRing2
                        {
                          OFFSET 3.44238 0 0
                          CHANNELS 3 Zrotation Xrotation Yrotation
                          JOINT LeftHandRing3
                          {
                            OFFSET 2.3881 0 0
                            CHANNELS 3 Zrotation Xrotation Yrotation
                            End Site
                            {
                              OFFSET 1.857 0 0
                            }
                          }
                        }
                      }
                    }
                    JOINT LeftInHandPinky
                    {
                      OFFSET 3.16105 0.469368 -1.20179
                      CHANNELS 3 Zrotation Xrotation Yrotation
                      JOINT LeftHandPinky1
                      {
                        OFFSET 4.14105 -0.022105 -1.09053
                        CHANNELS 3 Zrotation Xrotation Yrotation
                        JOINT LeftHandPinky2
                        {
                          OFFSET 2.75653 0 0
                          CHANNELS 3 Zrotation Xrotation Yrotation
                          JOINT LeftHandPinky3
                          {
                            OFFSET 1.74189 0 0
                            CHANNELS 3 Zrotation Xrotation Yrotation
                            End Site
                            {
                              OFFSET 1.645 0 0
                            }
                          }
                        }
                      }
                    }
                  }
                }
              }
            }
          }
        }
      }
    }
  }
}
MOTION
Frames: 2
Frame Time: 0.00833333
3.000000000000000000e+02 0.000000000000000000e+00 0.000000000000000000e+00 0.000000000000000000e+00 0.000000000000000000e+00 0.000000000000000000e+00 -6.403335661096060290e-03 4.042765836975939497e-02 9.528772654334015380e-02 -2.313930456973503635e-01 -1.913003135069922186e-03 -4.458797210701589964e-01 -2.563336390353228994e-02 -8.522682915134643933e-02 -1.994480069002748379e-01 -3.165700029961178094e-03 1.193769416722936100e-01 3.901066910268006782e-01 9.737977704369454868e-02 -4.576995157804007036e-02 3.468387625210861414e-01 1.549601510333603327e-01 -2.160375592187184501e-02 -3.644431824330844893e-01 -1.559479718486644385e-02 3.352204779294688797e-02 -8.436310340258196261e-02 -1.924813368399832803e-01 3.509780036532217373e-02 4.351155916922104794e-01 -4.256368274575591387e-02 2.137304275025425290e-02 1.059917609906557423e-01 -6.791032655951824426e-02 3.506141049191077719e-02 1.667552901506397234e-01 1.424827229085032926e-02 4.819165254416442161e-03 -3.316042637930051440e-02 1.522518017368745293e-02 3.952313574697995623e-03 -2.922697570925779365e-02 2.560748791155256221e-01 1.085371582694021758e-01 -6.089585542807117724e-01 -1.359213044310391139e-01 -1.814023898096814302e-01 2.820563258404345519e-01 4.563711067662851728e-01 -4.756590103379371159e-01 1.299760479161388427e-01 -9.782467307694401315e-01 5.837339492739181124e-02 -2.807975816872178010e-01 -4.960591735357341991e-02 -2.775341267104182164e-01 1.183881263462179673e-01 0.000000000000000000e+00 0.000000000000000000e+00 0.000000000000000000e+00 4.592283772633606471e-15 4.037158828224572021e-15 0.000000000000000000e+00 -6.623542920587662534e-16 -5.277019868301974467e-15 0.000000000000000000e+00 -3.504140317733739212e-15 3.318674652946674241e-15 -3.343706180110775745e-15 0.000000000000000000e+00 0.000000000000000000e+00 0.000000000000000000e+00 0.000000000000000000e+00 -8.331031505594290466e-15 6.229698167172372037e-15 0.000000000000000000e+00 -5.945377678927392146e-15 -1.172147448680657028e-14 -3.504140317733739212e-15 3.318674652946674241e-15 -3.343706180110775745e-15 0.000000000000000000e+00 6.530662464891753938e-16 -1.143917234763891292e-14 0.000000000000000000e+00 -1.789328140981807770e-15 1.088995693144533647e-14 0.000000000000000000e+00 2.047989150458223395e-15 -2.564816573936280745e-14 -3.504140317733739212e-15 3.318674652946674241e-15 -3.343706180110775745e-15 0.000000000000000000e+00 0.000000000000000000e+00 0.000000000000000000e+00 0.000000000000000000e+00 -1.948894586190308635e-15 8.617889893424347488e-15 0.000000000000000000e+00 -4.329314069461784060e-15 -9.289645946372583790e-15 -3.504140317733739212e-15 3.318674652946674241e-15 -3.343706180110775745e-15 0.000000000000000000e+00 0.000000000000000000e+00 0.000000000000000000e+00 0.000000000000000000e+00 1.160406923670253319e-14 7.115588450549060054e-14 0.000000000000000000e+00 1.606484992975517577e-15 -5.265866108712017751e-15 4.525458939351457155e-01 -4.655653986057750604e-01 -1.469899483550008323e+00 -1.043668001347561880e+00 -3.180906215175813845e-01 1.054204732652562759e+00 1.113142504565972496e-01 -2.882545434595109590e-01 1.562678399630593462e-01 -2.750778246745288341e-02 -1.529297266643026010e-01 7.699628462206704882e-02 0.000000000000000000e+00 0.000000000000000000e+00 0.000000000000000000e+00 -7.742856788285959814e-16 -7.612173849232718872e-16 0.000000000000000000e+00 4.150602634452495384e-15 -2.853434276547466552e-15 0.000000000000000000e+00 -2.969726357797669272e-15 2.518905998401950992e-16 9.659043984015652399e-16 0.000000000000000000e+00 0.000000000000000000e+00 0.000000000000000000e+00 0.000000000000000000e+00 -5.650975753702134039e-17 1.073781377818654540e-14 0.000000000000000000e+00 -1.402188155282572293e-15 1.149482380639119584e-14 -2.969726357797669272e-15 2.518905998401950992e-16 9.659043984015652399e-16 0.000000000000000000e+00 -5.982098329805785820e-15 -5.339686457673287738e-16 0.000000000000000000e+00 -2.224209456946231877e-15 1.145097397997106542e-14 0.000000000000000000e+00 -7.851655455404674502e-17 1.947493313016383510e-14 -2.969726357797669272e-15 2.518905998401950992e-16 9.659043984015652399e-16 0.000000000000000000e+00 0.000000000000000000e+00 0.000000000000000000e+00 0.000000000000000000e+00 -3.258687909618925443e-15 1.579794713671340350e-14 0.000000000000000000e+00 -1.685697950033024215e-15 5.573420250134888614e-15 -2.969726357797669272e-15 2.518905998401950992e-16 9.659043984015652399e-16 0.000000000000000000e+00 0.000000000000000000e+00 0.000000000000000000e+00 0.000000000000000000e+00 -6.043825400875449312e-16 9.021591779015643197e-15 0.000000000000000000e+00 -6.868795278763082638e-16 1.114485036990793636e-14
3.000000000000000000e+02 0.000000000000000000e+00 0.000000000000000000e+00 0.000000000000000000e+00 0.000000000000000000e+00 0.000000000000000000e+00 -3.168375186445874549e-03 2.546309406878898007e-02 6.317997448397497107e-02 -1.832545232230230192e-01 -5.747100024577352952e-03 -3.503051753285461589e-01 -1.974407218172760659e-02 -8.054317773576546990e-02 -1.933554466515451931e-01 -8.056855641137599527e-03 1.181928886604644846e-01 3.526626310656035268e-01 1.169415093371853759e-01 -3.113570007843858081e-02 3.822557909761238881e-01 1.428680372904159723e-01 -2.129939307403571486e-02 -3.570526257066028442e-01 -1.450622067614051533e-02 2.777708495641325118e-02 -7.973805592041170731e-02 -2.040842313264848995e-01 3.135334076988071511e-02 4.556918910125048461e-01 -4.524714298971353743e-02 2.155585313969932137e-02 1.110176736467805153e-01 -7.216291631474004709e-02 3.562584364520759300e-02 1.741597762331782984e-01 1.444923175454163738e-02 3.823990439774821361e-03 -3.371313318840874623e-02 1.478122123528908399e-02 3.152167191260434563e-03 -3.063356498918634249e-02 2.588169985712205912e-01 9.306342750827778509e-02 -6.160450906744239230e-01 -1.207705978749419040e-01 -1.569489602670282036e-01 2.662768824521181132e-01 4.239234421919071960e-01 -4.798870527290912680e-01 1.433311673690288723e-01 -8.590634067524244299e-01 8.766779382420042399e-03 -1.348645980567876046e-01 -2.584040598789402038e-02 -2.519603781411094423e-01 8.405243592172015332e-02 0.000000000000000000e+00 0.000000000000000000e+00 0.000000000000000000e+00 4.287210197169975372e-15 5.168391131993311237e-15 0.000000000000000000e+00 1.360321473667691945e-15 -4.802384658084848951e-15 0.000000000000000000e+00 -3.730226184960730276e-15 3.582587900374312218e-15 -3.964681656944063355e-15 0.000000000000000000e+00 0.000000000000000000e+00 0.000000000000000000e+00 0.000000000000000000e+00 -9.290844722911840273e-15 4.273364308645097964e-15 0.000000000000000000e+00 -6.121563178727356181e-15 -1.447058758970851941e-14 -3.730226184960730276e-15 3.582587900374312218e-15 -3.964681656944063355e-15 0.000000000000000000e+00 1.147319401656520322e-15 -1.105327072828008967e-14 0.000000000000000000e+00 -2.735401707763921624e-15 8.746274676994843031e-15 0.000000000000000000e+00 8.830624641533368361e-16 -2.440615069312014433e-14 -3.730226184960730276e-15 3.582587900374312218e-15 -3.964681656944063355e-15 0.000000000000000000e+00 0.000000000000000000e+00 0.000000000000000000e+00 0.000000000000000000e+00 -3.164960438513933945e-15 5.017358001467618432e-15 0.000000000000000000e+00 -5.076669360552760982e-15 -1.162383641985633799e-14 -3.730226184960730276e-15 3.582587900374312218e-15 -3.964681656944063355e-15 0.000000000000000000e+00 0.000000000000000000e+00 0.000000000000000000e+00 0.000000000000000000e+00 1.106733438154992148e-14 7.171689978662082350e-14 0.000000000000000000e+00 6.269196455206405097e-16 -5.152025453194217961e-15 4.901286612707315138e-01 -5.153810366383381192e-01 -1.601495114327758928e+00 -1.215669079553427068e+00 -3.682343114108868054e-01 1.221590161347009040e+00 1.079618313692409931e-01 -2.331859367010642448e-01 1.264507288417346664e-01 -3.434769187459625617e-02 -2.164439160790214145e-01 4.623076142269604005e-02 0.000000000000000000e+00 0.000000000000000000e+00 0.000000000000000000e+00 -1.715866709628348857e-16 -1.897723293979474213e-16 0.000000000000000000e+00 5.534876917733075150e-15 -2.793499056650132838e-15 0.000000000000000000e+00 -2.856257539225476682e-15 -4.421864005279565501e-16 7.527364473044054183e-16 0.000000000000000000e+00 0.000000000000000000e+00 0.000000000000000000e+00 0.000000000000000000e+00 -5.028711679887645218e-16 1.082743776896746655e-14 0.000000000000000000e+00 -1.881540613212050002e-15 1.167994055612228966e-14 -2.856257539225476682e-15 -4.421864005279565501e-16 7.527364473044054183e-16 0.000000000000000000e+00 -5.000831029775224598e-15 -1.168725984085081779e-15 0.000000000000000000e+00 -1.612628785934061363e-15 1.041918700616379402e-14 0.000000000000000000e+00 -6.664354413460507872e-16 1.807558468808557510e-14 -2.856257539225476682e-15 -4.421864005279565501e-16 7.527364473044054183e-16 0.000000000000000000e+00 0.000000000000000000e+00 0.000000000000000000e+00 0.000000000000000000e+00 -2.069910478461934282e-15 1.441463795889050800e-14 0.000000000000000000e+00 -1.681964369592794559e-15 4.043289848729268442e-15 -2.856257539225476682e-15 -4.421864005279565501e-16 7.527364473044054183e-16 0.000000000000000000e+00 0.000000000000000000e+00 0.000000000000000000e+00 0.000000000000000000e+00 -1.544488971155233957e-16 7.208080121047623208e-15 0.000000000000000000e+00 -1.187460171755298286e-15 1.219218763791044655e-14
